PathFileType	4	(X/Y/Z)	H:\MAC\Pilotos\MDrajagopal3\static1.trc																																																																																																																																																																																																																																								
DataRate	CameraRate	NumFrames	NumMarkers	Units	OrigDataRate	OrigDataStartFrame	OrigNumFrames																																																																																																																																																																																																																																				
150	150	4	78	mm	150	376	1500																																																																																																																																																																																																																																				
Frame#	Time	RACR			LACR			C7			CLAV			RASH			RPSH			LASH			LPSH			RUA1			RUA2			RUA3			RLEL			RMEL			RFAsuperior			RFAradius			RFAulna			LUA1			LUA2			LUA3			LLEL			LMEL			LFAsuperior			LFAradius			LFAulna			RASI			LASI			RPSI			LPSI			RTH1			RTH2			RTH3			RLFC			RMFC			RTB1			RTB2			RTB3			RLMAL			RMMAL			RCAL			RTOE			RMT5			LTH1			LTH2			LTH3			LLFC			LMFC			LTB1			LTB2			LTB3			LLMAL			LMMAL			LCAL			LTOE			LMT5			RSJC			LSJC			RHJC			LHJC			RKJC			LKJC			RAJC			LAJC			REJC			LEJC			Mid_ASIS			Mid_PSIS			RASHv			RPSHv			LPSHv			RLFCv			RMFCv			RLMALv			RMMALv			LLFCv			LMFCv			LLMALv			LMMALv			LASHv		
		X1	Y1	Z1	X2	Y2	Z2	X3	Y3	Z3	X4	Y4	Z4	X5	Y5	Z5	X6	Y6	Z6	X7	Y7	Z7	X8	Y8	Z8	X9	Y9	Z9	X10	Y10	Z10	X11	Y11	Z11	X12	Y12	Z12	X13	Y13	Z13	X14	Y14	Z14	X15	Y15	Z15	X16	Y16	Z16	X17	Y17	Z17	X18	Y18	Z18	X19	Y19	Z19	X20	Y20	Z20	X21	Y21	Z21	X22	Y22	Z22	X23	Y23	Z23	X24	Y24	Z24	X25	Y25	Z25	X26	Y26	Z26	X27	Y27	Z27	X28	Y28	Z28	X29	Y29	Z29	X30	Y30	Z30	X31	Y31	Z31	X32	Y32	Z32	X33	Y33	Z33	X34	Y34	Z34	X35	Y35	Z35	X36	Y36	Z36	X37	Y37	Z37	X38	Y38	Z38	X39	Y39	Z39	X40	Y40	Z40	X41	Y41	Z41	X42	Y42	Z42	X43	Y43	Z43	X44	Y44	Z44	X45	Y45	Z45	X46	Y46	Z46	X47	Y47	Z47	X48	Y48	Z48	X49	Y49	Z49	X50	Y50	Z50	X51	Y51	Z51	X52	Y52	Z52	X53	Y53	Z53	X54	Y54	Z54	X55	Y55	Z55	X56	Y56	Z56	X57	Y57	Z57	X58	Y58	Z58	X59	Y59	Z59	X60	Y60	Z60	X61	Y61	Z61	X62	Y62	Z62	X63	Y63	Z63	X64	Y64	Z64	X65	Y65	Z65	X66	Y66	Z66	X67	Y67	Z67	X68	Y68	Z68	X69	Y69	Z69	X70	Y70	Z70	X71	Y71	Z71	X72	Y72	Z72	X73	Y73	Z73	X74	Y74	Z74	X75	Y75	Z75	X76	Y76	Z76	X77	Y77	Z77	X78	Y78	Z78
																																																																																																																																																																																																																																											
376	2.5	690.35382	1393.04126	1383.91309	699.87097	1394.92236	1047.72485	642.89313	1412.06165	1205.92688	791.66724	1371.63574	1258.44568	760.92761	1366.34814	1403.7041	653.98547	1357.91345	1395.37158	773.35931	1378.87109	1040.9375	670.59796	1355.71472	1028.76831	695.58551	1275.07129	1458.82239	737.73376	1207.26831	1478.51172	664.9715	1164.40137	1452.87744	682.03174	1120.30188	1493.19226	740.06964	1092.86938	1432.47437	755.22778	1044.48096	1577.32544	776.97339	970.31769	1629.84155	740.97052	917.90479	1588.85986	701.48578	1296.6167	975.63062	744.63727	1212.39392	946.90125	684.42688	1169.03711	986.54675	714.51599	1134.09729	920.9743	746.42609	1093.22498	996.73755	777.0127	1028.63916	843.34265	823.81036	967.91034	817.86572	775.58331	917.64764	838.89874	825.63489	904.55707	1337.71289	829.50714	899.30042	1110.77209	650.61121	926.75061	1261.48779	648.49268	925.71783	1179.34216	731.57135	798.70801	1389.63953	688.17108	640.12744	1371.67834	754.78326	610.70825	1400.14063	749.96283	470.29861	1392.29944	756.4613	450.35028	1264.06909	783.58984	343.38065	1355.25024	701.80023	327.09015	1425.91003	737.76324	200.39032	1405.5603	684.67426	82.65066	1407.69373	710.04584	86.88402	1319.32898	636.28137	35.94255	1372.20935	845.5379	36.9565	1377.90649	806.98431	33.3758	1425.10559	746.45361	805.98932	1048.677	699.43188	657.11023	1060.24841	751.05707	580.95654	1045.74133	755.11865	467.59998	1053.60217	740.70258	450.69052	1178.90466	781.97107	353.3696	1095.61279	690.82532	312.43054	1019.41156	745.8017	183.47618	1058.79358	692.49371	77.03735	1044.15955	711.91461	87.10741	1132.60828	643.47205	45.61153	1074.8363	844.79865	37.04426	1079.14941	817.47778	29.74559	1031.16223	707.45654	1362.13086	1399.53784	721.97864	1367.29297	1034.85291	733.462	839.95	1321.49	737.773	839.569	1117.435	753.21204	460.32446	1328.18433	747.91058	459.14523	1116.25342	697.36005	84.76734	1363.51135	702.20416	82.07237	1088.38391	711.05072	1106.58557	1462.83325	730.47107	1113.66113	958.85596	827.57098	901.92877	1224.24255	649.55194	926.23425	1220.41504	799.79828	1314.05042	1442.81799	691.9306	1319.04297	1416.35596	733.97229	1397.88025	993.52301	722.39972	501.45993	1414.74255	780.96741	460.64392	1298.30066	703.04688	67.0734	1447.34436	729.10278	62.23064	1359.59326	771.79321	515.38385	1012.90564	780.79169	485.33267	1142.25964	710.6485	60.13766	1031.38013	747.21906	73.34299	1114.73804	818.91455	1376.76868	941.86517
377	2.507	690.3114	1393.052	1383.88586	699.82031	1394.91199	1047.69666	642.84375	1412.06006	1205.89587	791.62616	1371.63208	1258.40601	760.88818	1366.35815	1403.67773	653.97467	1357.90735	1395.35413	773.31927	1378.87292	1040.9104	670.54248	1355.71252	1028.73938	695.54486	1275.08691	1458.80725	737.69666	1207.28516	1478.50098	664.93384	1164.41296	1452.88123	681.99908	1120.32007	1493.18726	740.02148	1092.87939	1432.47034	755.18933	1044.51526	1577.31201	776.94214	970.34705	1629.83826	740.92926	917.92487	1588.86768	701.44794	1296.61621	975.60773	744.59399	1212.38867	946.87433	684.38794	1169.0343	986.52222	714.47339	1134.08191	920.95038	746.39459	1093.21521	996.70563	776.96234	1028.64661	843.30261	823.77985	967.92017	817.83221	775.55267	917.65033	838.86829	825.60114	904.56305	1337.70544	829.47931	899.29651	1110.77039	650.57239	926.74811	1261.48157	648.46063	925.71265	1179.33667	731.54358	798.70264	1389.63562	688.15369	640.11743	1371.6853	754.76251	610.7132	1400.14209	749.95349	470.29449	1392.29163	756.46478	450.34653	1264.08057	783.58423	343.38068	1355.25317	701.80054	327.08374	1425.90332	737.75824	200.38315	1405.55298	684.66455	82.64313	1407.69324	710.05267	86.87698	1319.32532	636.27197	35.95637	1372.21252	845.54059	36.94929	1377.91052	806.99274	33.37517	1425.10266	746.43994	805.98328	1048.68005	699.41327	657.10449	1060.24683	751.04138	580.95782	1045.7334	755.11096	467.59244	1053.59399	740.71143	450.69119	1178.89563	781.95624	353.35599	1095.61035	690.815	312.43228	1019.41248	745.79224	183.46968	1058.7915	692.48901	77.03759	1044.14294	711.92194	87.10101	1132.59253	643.47272	45.60259	1074.84436	844.8075	37.04605	1079.16138	817.48682	29.72529	1031.16113	707.43146	1362.13281	1399.51599	721.93085	1367.29272	1034.82483	733.43	839.953	1321.488	737.744	839.563	1117.433	753.20911	460.32053	1328.18616	747.91119	459.14182	1116.24475	697.35864	84.76006	1363.50928	702.20551	82.06931	1088.3678	711.01025	1106.59973	1462.82886	730.43402	1113.64856	958.828	827.54022	901.92981	1224.23792	649.51654	926.23041	1220.40918	799.75433	1314.06775	1442.78552	691.88495	1319.05322	1416.33557	733.94122	1397.87805	993.49744	722.39514	501.4552	1414.75488	780.95892	460.63736	1298.31165	703.04694	67.06391	1447.32361	729.10522	62.22875	1359.57288	771.76855	515.37848	1012.89581	780.77008	485.32156	1142.24817	710.6142	60.1338	1031.35474	747.18597	73.33014	1114.71362	818.87836	1376.76196	941.83307
378	2.513	690.27612	1393.0575	1383.86121	699.78461	1394.90576	1047.66895	642.79712	1412.05896	1205.86841	791.57965	1371.6394	1258.38159	760.85052	1366.36572	1403.65747	653.91254	1357.93103	1395.33191	773.26862	1378.86914	1040.89441	670.492	1355.70703	1028.71362	695.51288	1275.10046	1458.7915	737.65167	1207.30859	1478.48645	664.90472	1164.43152	1452.87195	681.96271	1120.33813	1493.18994	739.99921	1092.89282	1432.46411	755.14838	1044.52966	1577.31433	776.90875	970.3739	1629.84998	740.90198	917.94623	1588.86792	701.40192	1296.60693	975.58148	744.56061	1212.38904	946.84027	684.35828	1169.0249	986.50037	714.42407	1134.07886	920.9292	746.34131	1093.21667	996.67389	776.92706	1028.64771	843.27063	823.74847	967.92023	817.802	775.52618	917.64917	838.83655	825.54974	904.57074	1337.70215	829.43982	899.30621	1110.77881	650.53839	926.74286	1261.4906	648.42078	925.70874	1179.32983	731.50049	798.71045	1389.63757	688.12415	640.12115	1371.6842	754.73767	610.71912	1400.14868	749.93317	470.29752	1392.28992	756.45795	450.35236	1264.08545	783.58673	343.38806	1355.25049	701.79291	327.08539	1425.91125	737.75446	200.38617	1405.56006	684.67242	82.65044	1407.6947	710.04657	86.88461	1319.32495	636.28186	35.94566	1372.20813	845.53711	36.95501	1377.90479	806.9931	33.37843	1425.11694	746.41742	805.98401	1048.68884	699.39484	657.10175	1060.25391	751.0329	580.95978	1045.745	755.09894	467.59528	1053.60522	740.67969	450.69629	1178.90356	781.95953	353.36026	1095.61804	690.79816	312.43451	1019.40778	745.79797	183.48077	1058.79358	692.49341	77.03107	1044.14941	711.90582	87.10378	1132.59961	643.46906	45.61052	1074.83984	844.79883	37.04139	1079.15564	817.48151	29.7345	1031.15906	707.38153	1362.14844	1399.49475	721.88031	1367.28809	1034.80408	733.391	839.953	1321.488	737.71	839.566	1117.434	753.19556	460.32495	1328.18774	747.88934	459.14578	1116.25439	697.3595	84.76752	1363.50989	702.19965	82.06742	1088.37451	710.98096	1106.61548	1462.82703	730.38269	1113.64783	958.80151	827.49475	901.93848	1224.24048	649.47961	926.22583	1220.41028	799.72272	1314.08118	1442.77185	691.85803	1319.06531	1416.31799	733.87775	1397.87451	993.47046	722.37292	501.4624	1414.7572	780.94952	460.64862	1298.31897	703.06036	67.06773	1447.31982	729.11792	62.23415	1359.56873	771.76056	515.37958	1012.9118	780.75128	485.3252	1142.2655	710.61359	60.14259	1031.34619	747.18915	73.33327	1114.70422	818.81268	1376.77649	941.7951
379	2.52	690.23438	1393.06787	1383.83167	699.74133	1394.90527	1047.646	642.7442	1412.05994	1205.84595	791.54718	1371.64905	1258.36072	760.8056	1366.38928	1403.62549	653.87988	1357.94006	1395.30627	773.22461	1378.87012	1040.8634	670.44696	1355.69995	1028.69226	695.46912	1275.12488	1458.77673	737.62164	1207.32556	1478.47217	664.87524	1164.45435	1452.86279	681.93384	1120.35986	1493.17395	739.96313	1092.91223	1432.45483	755.1297	1044.55286	1577.30139	776.88202	970.39777	1629.84644	740.68994	917.87787	1588.60925	701.35876	1296.60376	975.55627	744.50531	1212.39063	946.81104	684.32416	1169.02539	986.47205	714.39111	1134.07312	920.90369	746.31122	1093.21851	996.64423	776.88867	1028.65833	843.23907	823.71436	967.93671	817.76801	775.50616	917.66083	838.79858	825.52155	904.57635	1337.70044	829.40723	899.29132	1110.77454	650.49768	926.74603	1261.474	648.39307	925.703	1179.32495	731.46991	798.70892	1389.63953	688.10413	640.11877	1371.69348	754.71515	610.72107	1400.14893	749.93097	470.29953	1392.29639	756.43695	450.34024	1264.09314	783.57794	343.39084	1355.2533	701.79144	327.08292	1425.91296	737.76172	200.38901	1405.55286	684.66382	82.64875	1407.69556	710.04242	86.89083	1319.32874	636.27893	35.9487	1372.21667	845.53784	36.9516	1377.90308	806.98871	33.37056	1425.10608	746.3902	805.9873	1048.69019	699.3739	657.10254	1060.25562	750.96967	580.86841	1045.49109	755.09894	467.58844	1053.60413	740.68402	450.68832	1178.89807	781.93719	353.36478	1095.60608	690.79089	312.42575	1019.41492	745.78687	183.48019	1058.79333	692.49188	77.04091	1044.13562	711.90784	87.10537	1132.59448	643.46899	45.60008	1074.8313	844.80286	37.04534	1079.15796	817.47968	29.7328	1031.15601	707.34277	1362.16467	1399.46594	721.83582	1367.28503	1034.77783	733.356	839.96	1321.488	737.678	839.553	1117.434	753.18396	460.31989	1328.19482	747.89148	459.1384	1116.2511	697.35309	84.76979	1363.51221	702.19983	82.07314	1088.36499	710.94849	1106.63611	1462.81445	730.3512	1113.64575	958.77399	827.46442	901.93384	1224.23743	649.44537	926.22455	1220.39954	799.67273	1314.11841	1442.74756	691.8075	1319.08911	1416.3031	733.84192	1397.87036	993.43787	722.36646	501.46066	1414.76538	780.93481	460.64908	1298.32227	703.06738	67.0638	1447.31628	729.12201	62.23431	1359.56409	771.55328	515.41479	1012.52869	780.96313	485.22437	1141.82092	710.62555	60.13161	1031.36694	747.20313	73.3353	1114.72192	818.76678	1376.76794	941.74768
